<svg width="28" height="28" viewBox="0 0 28 28" fill="none" xmlns="http://www.w3.org/2000/svg">
<path d="M5.50545 15.1307C5.58671 15.0494 5.68322 14.9848 5.78944 14.9408C5.89567 14.8968 6.00952 14.8741 6.12451 14.8741C6.2395 14.8741 6.35336 14.8968 6.45959 14.9408C6.56581 14.9848 6.66231 15.0494 6.74358 15.1307L13.1245 21.5128L13.1245 4.3748C13.1245 4.14274 13.2167 3.92018 13.3808 3.75608C13.5449 3.59199 13.7675 3.4998 13.9995 3.4998C14.2316 3.4998 14.4541 3.59199 14.6182 3.75608C14.7823 3.92018 14.8745 4.14274 14.8745 4.3748L14.8745 21.5128L21.2555 15.1307C21.4196 14.9666 21.6423 14.8743 21.8745 14.8743C22.1067 14.8743 22.3294 14.9666 22.4936 15.1307C22.6578 15.2949 22.75 15.5176 22.75 15.7498C22.75 15.982 22.6578 16.2047 22.4936 16.3689L14.6186 24.2439C14.5373 24.3252 14.4408 24.3898 14.3346 24.4338C14.2284 24.4778 14.1145 24.5005 13.9995 24.5005C13.8845 24.5005 13.7707 24.4778 13.6644 24.4338C13.5582 24.3898 13.4617 24.3252 13.3805 24.2439L5.50545 16.3689C5.4241 16.2876 5.35956 16.1911 5.31552 16.0849C5.27149 15.9786 5.24883 15.8648 5.24883 15.7498C5.24883 15.6348 5.27149 15.5209 5.31552 15.4147C5.35956 15.3085 5.4241 15.212 5.50545 15.1307Z" fill="#FED30D"/>
</svg>
