<svg width="68" height="61" viewBox="0 0 68 61" fill="none" xmlns="http://www.w3.org/2000/svg">
<rect width="68" height="61" rx="8.69028" fill="#FED30D"/>
<path d="M45 23H40C40 21.4087 39.3679 19.8826 38.2426 18.7574C37.1174 17.6321 35.5913 17 34 17C32.4087 17 30.8826 17.6321 29.7574 18.7574C28.6321 19.8826 28 21.4087 28 23H23C22.4696 23 21.9609 23.2107 21.5858 23.5858C21.2107 23.9609 21 24.4696 21 25V40C21 40.5304 21.2107 41.0391 21.5858 41.4142C21.9609 41.7893 22.4696 42 23 42H45C45.5304 42 46.0391 41.7893 46.4142 41.4142C46.7893 41.0391 47 40.5304 47 40V25C47 24.4696 46.7893 23.9609 46.4142 23.5858C46.0391 23.2107 45.5304 23 45 23ZM34 19C35.0609 19 36.0783 19.4214 36.8284 20.1716C37.5786 20.9217 38 21.9391 38 23H30C30 21.9391 30.4214 20.9217 31.1716 20.1716C31.9217 19.4214 32.9391 19 34 19ZM45 40H23V25H28V27C28 27.2652 28.1054 27.5196 28.2929 27.7071C28.4804 27.8946 28.7348 28 29 28C29.2652 28 29.5196 27.8946 29.7071 27.7071C29.8946 27.5196 30 27.2652 30 27V25H38V27C38 27.2652 38.1054 27.5196 38.2929 27.7071C38.4804 27.8946 38.7348 28 39 28C39.2652 28 39.5196 27.8946 39.7071 27.7071C39.8946 27.5196 40 27.2652 40 27V25H45V40Z" fill="url(#paint0_linear_266_359)"/>
<defs>
<linearGradient id="paint0_linear_266_359" x1="34" y1="17" x2="34" y2="42" gradientUnits="userSpaceOnUse">
<stop stop-color="#1C1706"/>
<stop offset="1" stop-color="#564720"/>
</linearGradient>
</defs>
</svg>
