<svg width="68" height="61" viewBox="0 0 68 61" fill="none" xmlns="http://www.w3.org/2000/svg">
<rect width="68" height="61" rx="8.69028" fill="#FED30D"/>
<path d="M21 27V36C21 36.2652 21.1054 36.5196 21.2929 36.7071C21.4804 36.8946 21.7348 37 22 37H32C32.2652 37 32.5196 37.1054 32.7071 37.2929C32.8946 37.4804 33 37.7348 33 38C33 38.2652 32.8946 38.5196 32.7071 38.7071C32.5196 38.8946 32.2652 39 32 39H30V41H32C32.2652 41 32.5196 41.1054 32.7071 41.2929C32.8946 41.4804 33 41.7348 33 42C33 42.2652 32.8946 42.5196 32.7071 42.7071C32.5196 42.8946 32.2652 43 32 43H26C25.7348 43 25.4804 42.8946 25.2929 42.7071C25.1054 42.5196 25 42.2652 25 42C25 41.7348 25.1054 41.4804 25.2929 41.2929C25.4804 41.1054 25.7348 41 26 41H28V39H22C21.2044 39 20.4413 38.6839 19.8787 38.1213C19.3161 37.5587 19 36.7956 19 36V27C19 26.2044 19.3161 25.4413 19.8787 24.8787C20.4413 24.3161 21.2044 24 22 24H32C32.2652 24 32.5196 24.1054 32.7071 24.2929C32.8946 24.4804 33 24.7348 33 25C33 25.2652 32.8946 25.5196 32.7071 25.7071C32.5196 25.8946 32.2652 26 32 26H22C21.7348 26 21.4804 26.1054 21.2929 26.2929C21.1054 26.4804 21 26.7348 21 27ZM44 23H40C39.7348 23 39.4804 23.1054 39.2929 23.2929C39.1054 23.4804 39 23.7348 39 24C39 24.2652 39.1054 24.5196 39.2929 24.7071C39.4804 24.8946 39.7348 25 40 25H44C44.2652 25 44.5196 24.8946 44.7071 24.7071C44.8946 24.5196 45 24.2652 45 24C45 23.7348 44.8946 23.4804 44.7071 23.2929C44.5196 23.1054 44.2652 23 44 23ZM44 27H40C39.7348 27 39.4804 27.1054 39.2929 27.2929C39.1054 27.4804 39 27.7348 39 28C39 28.2652 39.1054 28.5196 39.2929 28.7071C39.4804 28.8946 39.7348 29 40 29H44C44.2652 29 44.5196 28.8946 44.7071 28.7071C44.8946 28.5196 45 28.2652 45 28C45 27.7348 44.8946 27.4804 44.7071 27.2929C44.5196 27.1054 44.2652 27 44 27ZM49 21V41C49 41.5304 48.7893 42.0391 48.4142 42.4142C48.0391 42.7893 47.5304 43 47 43H37C36.4696 43 35.9609 42.7893 35.5858 42.4142C35.2107 42.0391 35 41.5304 35 41V21C35 20.4696 35.2107 19.9609 35.5858 19.5858C35.9609 19.2107 36.4696 19 37 19H47C47.5304 19 48.0391 19.2107 48.4142 19.5858C48.7893 19.9609 49 20.4696 49 21ZM47 41V21H37V41H47ZM42 36C41.7033 36 41.4133 36.088 41.1666 36.2528C40.92 36.4176 40.7277 36.6519 40.6142 36.926C40.5007 37.2001 40.4709 37.5017 40.5288 37.7926C40.5867 38.0836 40.7296 38.3509 40.9393 38.5607C41.1491 38.7704 41.4164 38.9133 41.7074 38.9712C41.9983 39.0291 42.2999 38.9993 42.574 38.8858C42.8481 38.7723 43.0824 38.58 43.2472 38.3334C43.412 38.0867 43.5 37.7967 43.5 37.5C43.5 37.1022 43.342 36.7206 43.0607 36.4393C42.7794 36.158 42.3978 36 42 36Z" fill="url(#paint0_linear_266_358)"/>
<defs>
<linearGradient id="paint0_linear_266_358" x1="34" y1="19" x2="34" y2="43" gradientUnits="userSpaceOnUse">
<stop stop-color="#1C1706"/>
<stop offset="1" stop-color="#564720"/>
</linearGradient>
</defs>
</svg>
