<svg width="68" height="61" viewBox="0 0 68 61" fill="none" xmlns="http://www.w3.org/2000/svg">
<rect width="68" height="61" rx="8.69028" fill="#FED30D"/>
<path d="M45 20H27C26.4696 20 25.9609 20.2107 25.5858 20.5858C25.2107 20.9609 25 21.4696 25 22V24H23C22.4696 24 21.9609 24.2107 21.5858 24.5858C21.2107 24.9609 21 25.4696 21 26V40C21 40.5304 21.2107 41.0391 21.5858 41.4142C21.9609 41.7893 22.4696 42 23 42H41C41.5304 42 42.0391 41.7893 42.4142 41.4142C42.7893 41.0391 43 40.5304 43 40V38H45C45.5304 38 46.0391 37.7893 46.4142 37.4142C46.7893 37.0391 47 36.5304 47 36V22C47 21.4696 46.7893 20.9609 46.4142 20.5858C46.0391 20.2107 45.5304 20 45 20ZM41 26V28H23V26H41ZM41 40H23V30H41V40ZM45 36H43V26C43 25.4696 42.7893 24.9609 42.4142 24.5858C42.0391 24.2107 41.5304 24 41 24H27V22H45V36Z" fill="url(#paint0_linear_266_357)"/>
<defs>
<linearGradient id="paint0_linear_266_357" x1="34" y1="20" x2="34" y2="42" gradientUnits="userSpaceOnUse">
<stop stop-color="#1C1706"/>
<stop offset="1" stop-color="#564720"/>
</linearGradient>
</defs>
</svg>
