<svg width="32" height="31" viewBox="0 0 32 31" fill="none" xmlns="http://www.w3.org/2000/svg">
<g clip-path="url(#clip0_266_173)">
<path d="M15.3917 12.1036C15.6048 11.4642 16.5077 11.4642 16.7208 12.1036L17.9705 15.8565C18.2455 16.6815 18.709 17.4311 19.3241 18.0459C19.9392 18.6606 20.689 19.1237 21.5142 19.3983L25.2652 20.648C25.9045 20.8611 25.9045 21.764 25.2652 21.9771L21.5122 23.2268C20.6872 23.5019 19.9376 23.9653 19.3229 24.5804C18.7081 25.1955 18.2451 25.9453 17.9705 26.7705L16.7208 30.5215C16.6748 30.6615 16.5858 30.7834 16.4665 30.8698C16.3472 30.9563 16.2036 31.0028 16.0562 31.0028C15.9089 31.0028 15.7653 30.9563 15.6459 30.8698C15.5266 30.7834 15.4376 30.6615 15.3917 30.5215L14.142 26.7685C13.8671 25.9437 13.4039 25.1943 12.7892 24.5796C12.1744 23.9648 11.425 23.5017 10.6002 23.2268L6.84727 21.9771C6.70727 21.9311 6.58535 21.8421 6.49892 21.7228C6.41248 21.6035 6.36594 21.4599 6.36594 21.3125C6.36594 21.1652 6.41248 21.0216 6.49892 20.9022C6.58535 20.7829 6.70727 20.6939 6.84727 20.648L10.6002 19.3983C11.425 19.1234 12.1744 18.6602 12.7892 18.0455C13.4039 17.4308 13.8671 16.6813 14.142 15.8565L15.3917 12.1036ZM7.90709 2.22428C7.93487 2.14037 7.98839 2.06736 8.06004 2.01561C8.13169 1.96386 8.21783 1.936 8.30621 1.936C8.3946 1.936 8.48073 1.96386 8.55238 2.01561C8.62403 2.06736 8.67755 2.14037 8.70534 2.22428L9.45515 4.47565C9.79034 5.47928 10.577 6.2659 11.5806 6.60109L13.832 7.3509C13.9159 7.37869 13.9889 7.43221 14.0406 7.50386C14.0924 7.57551 14.1202 7.66164 14.1202 7.75003C14.1202 7.83841 14.0924 7.92455 14.0406 7.9962C13.9889 8.06785 13.9159 8.12137 13.832 8.14915L11.5806 8.89897C11.0856 9.06388 10.6358 9.34181 10.2669 9.71073C9.89799 10.0796 9.62006 10.5294 9.45515 11.0244L8.70534 13.2758C8.67755 13.3597 8.62403 13.4327 8.55238 13.4844C8.48073 13.5362 8.3946 13.5641 8.30621 13.5641C8.21783 13.5641 8.13169 13.5362 8.06004 13.4844C7.98839 13.4327 7.93487 13.3597 7.90709 13.2758L7.15728 11.0244C6.99236 10.5294 6.71443 10.0796 6.34551 9.71073C5.97659 9.34181 5.52682 9.06388 5.03184 8.89897L2.78046 8.14915C2.69656 8.12137 2.62354 8.06785 2.57179 7.9962C2.52004 7.92455 2.49219 7.83841 2.49219 7.75003C2.49219 7.66164 2.52004 7.57551 2.57179 7.50386C2.62354 7.43221 2.69656 7.37869 2.78046 7.3509L5.03184 6.60109C5.52682 6.43618 5.97659 6.15825 6.34551 5.78933C6.71443 5.42041 6.99236 4.97064 7.15728 4.47565L7.90709 2.22428ZM21.6033 0.191841C21.6224 0.136673 21.6582 0.0888356 21.7058 0.0549791C21.7534 0.0211226 21.8103 0.00292969 21.8687 0.00292969C21.9271 0.00292969 21.984 0.0211226 22.0316 0.0549791C22.0792 0.0888356 22.115 0.136673 22.1341 0.191841L22.634 1.69147C22.8568 2.36184 23.3819 2.8869 24.0523 3.10972L25.5519 3.60959C25.6071 3.62872 25.6549 3.66456 25.6888 3.71213C25.7226 3.7597 25.7408 3.81664 25.7408 3.87503C25.7408 3.93342 25.7226 3.99036 25.6888 4.03793C25.6549 4.0855 25.6071 4.12134 25.5519 4.14047L24.0523 4.64034C23.7219 4.75024 23.4217 4.93565 23.1755 5.18184C22.9293 5.42803 22.7439 5.72823 22.634 6.05859L22.1341 7.55822C22.115 7.61338 22.0792 7.66122 22.0316 7.69508C21.984 7.72893 21.9271 7.74713 21.8687 7.74713C21.8103 7.74713 21.7534 7.72893 21.7058 7.69508C21.6582 7.66122 21.6224 7.61338 21.6033 7.55822L21.1034 6.05859C20.9935 5.72823 20.8081 5.42803 20.5619 5.18184C20.3157 4.93565 20.0155 4.75024 19.6852 4.64034L18.1875 4.14047C18.1323 4.12134 18.0845 4.0855 18.0506 4.03793C18.0167 3.99036 17.9986 3.93342 17.9986 3.87503C17.9986 3.81664 18.0167 3.7597 18.0506 3.71213C18.0845 3.66456 18.1323 3.62872 18.1875 3.60959L19.6871 3.10972C20.3575 2.8869 20.8825 2.36184 21.1053 1.69147L21.6033 0.193779V0.191841Z" fill="#FED30D"/>
</g>
<defs>
<clipPath id="clip0_266_173">
<rect width="31" height="31" fill="white" transform="translate(0.556641)"/>
</clipPath>
</defs>
</svg>
