<svg width="249" height="102" viewBox="0 0 249 102" fill="none" xmlns="http://www.w3.org/2000/svg">
<path d="M50.0674 77.4398H32.3438L50.0674 51.4561H67.7913L50.0674 77.4398Z" fill="white"/>
<path d="M43.5815 24.6338H61.7374L43.5815 51.4555H25.4255L43.5815 24.6338Z" fill="white"/>
<path d="M103.948 47.2378C103.948 48.831 103.552 50.3251 102.759 51.7196C101.996 53.1136 100.778 54.2375 99.1053 55.0914C97.4615 55.9448 95.3779 56.3718 92.8538 56.3718H87.7024V67.8103H81.5391V38.0186H92.8538C95.2311 38.0186 97.2561 38.4169 98.929 39.2137C100.602 40.0104 101.849 41.1059 102.672 42.5001C103.523 43.8944 103.948 45.4736 103.948 47.2378ZM92.5893 51.5486C94.2917 51.5486 95.5537 51.179 96.3759 50.4388C97.1975 49.6708 97.6083 48.6037 97.6083 47.2378C97.6083 44.3355 95.9355 42.8843 92.5893 42.8843H87.7024V51.5486H92.5893Z" fill="white"/>
<path d="M112.726 47.8353C113.518 46.5833 114.546 45.6016 115.808 44.8903C117.099 44.1789 118.567 43.8232 120.21 43.8232V50.0973H118.581C116.644 50.0973 115.177 50.5383 114.179 51.4208C113.21 52.3029 112.726 53.8392 112.726 56.0303V67.8103H106.562V44.1647H112.726V47.8353Z" fill="white"/>
<path d="M133.43 68.1952C131.082 68.1952 128.968 67.6973 127.09 66.7016C125.212 65.6773 123.729 64.24 122.644 62.3904C121.587 60.5408 121.059 58.4071 121.059 55.9882C121.059 53.5698 121.602 51.4356 122.688 49.586C123.803 47.7364 125.315 46.3137 127.222 45.3178C129.13 44.2934 131.258 43.7812 133.606 43.7812C135.954 43.7812 138.082 44.2934 139.99 45.3178C141.897 46.3137 143.394 47.7364 144.481 49.586C145.596 51.4356 146.153 53.5698 146.153 55.9882C146.153 58.4071 145.581 60.5408 144.437 62.3904C143.321 64.24 141.795 65.6773 139.858 66.7016C137.95 67.6973 135.807 68.1952 133.43 68.1952ZM133.43 62.9878C134.545 62.9878 135.587 62.7319 136.556 62.2199C137.554 61.6793 138.346 60.8823 138.933 59.8297C139.52 58.7767 139.814 57.4964 139.814 55.9882C139.814 53.7403 139.198 52.019 137.965 50.8236C136.761 49.6001 135.279 48.9886 133.518 48.9886C131.757 48.9886 130.275 49.6001 129.072 50.8236C127.897 52.019 127.311 53.7403 127.311 55.9882C127.311 58.2361 127.883 59.972 129.028 61.1956C130.201 62.3904 131.669 62.9878 133.43 62.9878Z" fill="white"/>
<path d="M155.077 63.0734H161.697V67.811H148.914V34.3486H155.077V63.0734Z" fill="white"/>
<path d="M166.478 41.3485C165.392 41.3485 164.482 41.0212 163.748 40.3668C163.044 39.6839 162.691 38.8445 162.691 37.8485C162.691 36.8526 163.044 36.0275 163.748 35.373C164.482 34.6901 165.392 34.3486 166.478 34.3486C167.564 34.3486 168.458 34.6901 169.163 35.373C169.897 36.0275 170.264 36.8526 170.264 37.8485C170.264 38.8445 169.897 39.6839 169.163 40.3668C168.458 41.0212 167.564 41.3485 166.478 41.3485ZM169.515 44.1655V67.811H163.352V44.1655H169.515Z" fill="white"/>
<path d="M187.36 43.8232C190.265 43.8232 192.613 44.7196 194.404 46.5122C196.194 48.2764 197.089 50.752 197.089 53.9388V67.8103H190.926V54.7499C190.926 52.8717 190.442 51.4349 189.473 50.4387C188.504 49.4143 187.184 48.9024 185.511 48.9024C183.808 48.9024 182.458 49.4143 181.46 50.4387C180.492 51.4349 180.008 52.8717 180.008 54.7499V67.8103H173.844V44.1647H180.008V47.1097C180.829 46.0854 181.871 45.2886 183.133 44.7196C184.424 44.122 185.833 43.8232 187.36 43.8232Z" fill="white"/>
<path d="M223.864 55.4763C223.864 56.3297 223.805 57.0981 223.688 57.781H205.858C206.004 59.4883 206.621 60.8255 207.706 61.793C208.792 62.7605 210.128 63.2443 211.713 63.2443C214.002 63.2443 215.631 62.2908 216.6 60.3844H223.247C222.543 62.661 221.193 64.5387 219.197 66.0187C217.201 67.4695 214.75 68.1952 211.845 68.1952C209.497 68.1952 207.384 67.6973 205.505 66.7016C203.656 65.6773 202.203 64.24 201.147 62.3904C200.119 60.5408 199.605 58.4071 199.605 55.9882C199.605 53.5412 200.119 51.3929 201.147 49.5433C202.174 47.6938 203.612 46.271 205.461 45.2751C207.31 44.2792 209.438 43.7812 211.845 43.7812C214.163 43.7812 216.233 44.265 218.053 45.2324C219.901 46.1999 221.325 47.5799 222.323 49.3728C223.35 51.1369 223.864 53.1711 223.864 55.4763ZM217.48 53.769C217.451 52.2322 216.878 51.0087 215.763 50.098C214.648 49.1591 213.283 48.6899 211.669 48.6899C210.143 48.6899 208.851 49.145 207.794 50.0557C206.767 50.9378 206.136 52.1754 205.901 53.769H217.48Z" fill="white"/>
</svg>
