<svg width="191" height="102" viewBox="0 0 191 102" fill="none" xmlns="http://www.w3.org/2000/svg">
<path d="M54.2241 35.7073C54.8828 36.3961 55.8876 36.7406 57.238 36.7406C58.5883 36.7406 59.5767 36.3961 60.2024 35.7073C60.8287 34.9856 61.1413 34.0999 61.1413 33.0502C61.1413 31.9348 60.8287 31.0328 60.2024 30.3439C59.5767 29.655 58.5883 29.3105 57.238 29.3105C55.8876 29.3105 54.8828 29.655 54.2241 30.3439C53.5977 31.0328 53.2852 31.9348 53.2852 33.0502C53.2852 34.0999 53.5977 34.9856 54.2241 35.7073Z" fill="white"/>
<path d="M22.8594 39.9385L31.2594 66.6573H42.2778L49.5412 39.9385H42.9207L37.455 61.0479H36.2883L29.9256 39.9385H22.8594Z" fill="white"/>
<path d="M76.7661 67.494C73.077 67.494 70.1779 66.7231 68.0699 65.1808C65.9949 63.6063 64.9077 61.4414 64.8088 58.6862H70.9849C71.0838 59.6042 71.5948 60.4408 72.5166 61.1952C73.439 61.9497 74.8889 62.3272 76.865 62.3272C78.512 62.3272 79.8129 62.0317 80.7683 61.4414C81.7567 60.8511 82.2506 60.0474 82.2506 59.0303C82.2506 58.1447 81.872 57.4394 81.1144 56.9145C80.3898 56.3897 79.1378 56.0453 77.3589 55.8812L74.9872 55.6352C71.9897 55.3072 69.684 54.4543 68.0699 53.0765C66.4558 51.6988 65.6488 49.8618 65.6488 47.5655C65.6488 45.7285 66.1097 44.1867 67.0321 42.9402C67.9545 41.6936 69.2231 40.7587 70.8372 40.1355C72.4836 39.4794 74.3614 39.1514 76.47 39.1514C79.7635 39.1514 82.4319 39.873 84.4745 41.3164C86.5165 42.7598 87.5873 44.8756 87.6862 47.6639H81.5094C81.4435 46.7454 80.9826 45.9581 80.1261 45.302C79.2696 44.646 78.0346 44.318 76.4205 44.318C74.9707 44.318 73.8511 44.5968 73.0605 45.1544C72.27 45.7121 71.8744 46.4338 71.8744 47.3195C71.8744 48.1724 72.1875 48.8285 72.8133 49.2877C73.472 49.7469 74.5263 50.0586 75.9755 50.2226L78.3472 50.4686C81.5094 50.7967 83.98 51.6659 85.7589 53.0765C87.5708 54.4871 88.4767 56.3897 88.4767 58.7841C88.4767 60.5557 87.9823 62.0974 86.9945 63.4099C86.0391 64.689 84.6882 65.6897 82.9428 66.4113C81.1969 67.1329 79.1378 67.494 76.7661 67.494Z" fill="white"/>
<path d="M92.4696 35.7073C93.1288 36.3961 94.1331 36.7406 95.4841 36.7406C96.8344 36.7406 97.8228 36.3961 98.4485 35.7073C99.0742 34.9856 99.3874 34.0999 99.3874 33.0502C99.3874 31.9348 99.0742 31.0328 98.4485 30.3439C97.8228 29.655 96.8344 29.3105 95.4841 29.3105C94.1331 29.3105 93.1288 29.655 92.4696 30.3439C91.8438 31.0328 91.5312 31.9348 91.5312 33.0502C91.5312 34.0999 91.8438 34.9856 92.4696 35.7073Z" fill="white"/>
<path fill-rule="evenodd" clip-rule="evenodd" d="M118.175 67.592C115.803 67.592 113.712 67.2151 111.9 66.4607C110.088 65.7062 108.557 64.6891 107.304 63.41C106.053 62.0975 105.098 60.6215 104.439 58.9812C103.813 57.3412 103.5 55.6354 103.5 53.864V52.8307C103.5 50.9937 103.83 49.255 104.488 47.6149C105.18 45.9419 106.152 44.4657 107.403 43.1864C108.688 41.8742 110.237 40.8573 112.048 40.1356C113.86 39.3811 115.902 39.0039 118.175 39.0039C120.448 39.0039 122.491 39.3811 124.302 40.1356C126.114 40.8573 127.645 41.8742 128.897 43.1864C130.182 44.4657 131.154 45.9419 131.812 47.6149C132.471 49.255 132.801 50.9937 132.801 52.8307V53.864C132.801 55.6354 132.471 57.3412 131.812 58.9812C131.187 60.6215 130.248 62.0975 128.996 63.41C127.744 64.6891 126.213 65.7062 124.401 66.4607C122.589 67.2151 120.514 67.592 118.175 67.592ZM118.175 61.737C119.855 61.737 121.271 61.3759 122.425 60.6543C123.577 59.8998 124.45 58.8992 125.043 57.6528C125.636 56.3734 125.932 54.9301 125.932 53.3227C125.932 51.6825 125.62 50.2391 124.994 48.9926C124.401 47.7133 123.511 46.7128 122.326 45.9911C121.173 45.2366 119.789 44.8593 118.175 44.8593C116.561 44.8593 115.161 45.2366 113.975 45.9911C112.822 46.7128 111.933 47.7133 111.307 48.9926C110.681 50.2391 110.368 51.6825 110.368 53.3227C110.368 54.9301 110.664 56.3734 111.258 57.6528C111.884 58.8992 112.773 59.8998 113.926 60.6543C115.079 61.3759 116.495 61.737 118.175 61.737Z" fill="white"/>
<path d="M142.372 44.6136C142.136 45.2014 141.938 45.8379 141.779 46.5233V39.9391H136.344V66.6579H143.212V50.9611C143.212 49.2225 143.723 47.8448 144.744 46.8279C145.798 45.7781 147.165 45.2533 148.845 45.2533C150.492 45.2533 151.776 45.7617 152.699 46.7786C153.654 47.7956 154.132 49.1241 154.132 50.7643V66.6579H161V51.3547C161 47.2871 160.177 44.2364 158.529 42.2025C156.882 40.1359 154.461 39.1025 151.266 39.1025H150.969C148.828 39.1025 147.033 39.5618 145.584 40.4803C144.168 41.3988 143.097 42.7766 142.372 44.6136Z" fill="white"/>
<path d="M54.7199 45.0559V66.6573H61.5883V39.9385H50.9648V45.0559H54.7199Z" fill="white"/>
<path d="M92.9665 45.0559V66.6573H99.8343V39.9385H89.2109V45.0559H92.9665Z" fill="white"/>
<path fill-rule="evenodd" clip-rule="evenodd" d="M-6.84699 72.1488C5.03155 72.1488 14.6613 62.559 14.6613 50.7297C14.6613 38.9002 5.03155 29.3105 -6.84699 29.3105C-18.7258 29.3105 -28.3555 38.9002 -28.3555 50.7297C-28.3555 62.559 -18.7258 72.1488 -6.84699 72.1488ZM8.98199 48.507C6.97646 50.8425 4.15151 52.2969 1.02164 52.2969C-5.06279 52.2969 -9.99504 46.8004 -9.99504 40.0201C-9.99504 38.3143 -9.68288 36.6898 -9.11866 35.2135C-16.7428 36.3667 -22.5851 42.9223 -22.5851 50.8367C-22.5851 53.1459 -22.0877 55.3394 -21.1939 57.3168C-20.2871 56.4768 -19.0128 55.954 -17.6014 55.954C-14.849 55.954 -12.6177 57.9421 -12.6177 60.3948C-12.6177 62.0414 -13.6238 63.4788 -15.1181 64.2455C-12.6815 65.7626 -9.80161 66.6396 -6.71602 66.6396C2.04825 66.6396 9.15329 59.5647 9.15329 50.8367C9.15329 50.0452 9.09443 49.2673 8.98199 48.507Z" fill="white"/>
<mask id="mask0_33_103" style="mask-type:luminance" maskUnits="userSpaceOnUse" x="-29" y="29" width="44" height="44">
<path fill-rule="evenodd" clip-rule="evenodd" d="M-6.84699 72.1488C5.03155 72.1488 14.6613 62.559 14.6613 50.7297C14.6613 38.9002 5.03155 29.3105 -6.84699 29.3105C-18.7258 29.3105 -28.3555 38.9002 -28.3555 50.7297C-28.3555 62.559 -18.7258 72.1488 -6.84699 72.1488ZM8.98199 48.507C6.97646 50.8425 4.15151 52.2969 1.02164 52.2969C-5.06279 52.2969 -9.99504 46.8004 -9.99504 40.0201C-9.99504 38.3143 -9.68288 36.6898 -9.11866 35.2135C-16.7428 36.3667 -22.5851 42.9223 -22.5851 50.8367C-22.5851 53.1459 -22.0877 55.3394 -21.1939 57.3168C-20.2871 56.4768 -19.0128 55.954 -17.6014 55.954C-14.849 55.954 -12.6177 57.9421 -12.6177 60.3948C-12.6177 62.0414 -13.6238 63.4788 -15.1181 64.2455C-12.6815 65.7626 -9.80161 66.6396 -6.71602 66.6396C2.04825 66.6396 9.15329 59.5647 9.15329 50.8367C9.15329 50.0452 9.09443 49.2673 8.98199 48.507Z" fill="white"/>
</mask>
<g mask="url(#mask0_33_103)">
<path d="M8.98154 48.5068L10.5379 48.2778L10.0329 44.871L7.7854 47.4883L8.98154 48.5068ZM-9.11911 35.2134L-7.64825 35.7709L-6.68892 33.2606L-9.35546 33.6639L-9.11911 35.2134ZM-21.1943 57.3167L-22.6294 57.96L-21.7288 59.9526L-20.1223 58.4642L-21.1943 57.3167ZM-15.1186 64.2454L-15.8394 62.852L-18.2983 64.1135L-15.953 65.5743L-15.1186 64.2454ZM13.0874 50.7295C13.0874 61.6936 4.16224 70.5811 -6.84744 70.5811V73.7156C5.90053 73.7156 16.2349 63.4247 16.2349 50.7295H13.0874ZM-6.84744 30.8776C4.16224 30.8776 13.0874 39.7656 13.0874 50.7295H16.2349C16.2349 38.0345 5.90053 27.7432 -6.84744 27.7432V30.8776ZM-26.7821 50.7295C-26.7821 39.7656 -17.8571 30.8776 -6.84744 30.8776V27.7432C-19.5954 27.7432 -29.9297 38.0345 -29.9297 50.7295H-26.7821ZM-6.84744 70.5811C-17.8571 70.5811 -26.7821 61.6936 -26.7821 50.7295H-29.9297C-29.9297 63.4247 -19.5954 73.7156 -6.84744 73.7156V70.5811ZM1.02119 53.8641C4.662 53.8641 7.90784 52.1686 10.1777 49.5254L7.7854 47.4883C6.04417 49.516 3.6401 50.7296 1.02119 50.7296V53.8641ZM-11.5693 40.02C-11.5693 47.4955 -6.09421 53.8641 1.02119 53.8641V50.7296C-4.03228 50.7296 -8.42174 46.1052 -8.42174 40.02H-11.5693ZM-10.59 34.6559C-11.2221 36.3098 -11.5693 38.1233 -11.5693 40.02H-8.42174C-8.42174 38.505 -8.14454 37.0694 -7.64825 35.7709L-10.59 34.6559ZM-21.0117 50.8366C-21.0117 43.7085 -15.7495 37.8014 -8.88283 36.7629L-9.35546 33.6639C-17.737 34.9316 -24.1593 42.1358 -24.1593 50.8366H-21.0117ZM-19.7592 56.6734C-20.5635 54.8942 -21.0117 52.9196 -21.0117 50.8366H-24.1593C-24.1593 53.3719 -23.6129 55.7843 -22.6294 57.96L-19.7592 56.6734ZM-17.6018 54.3866C-19.4028 54.3866 -21.0623 55.0538 -22.2663 56.1692L-20.1223 58.4642C-19.5128 57.8994 -18.6237 57.5211 -17.6018 57.5211V54.3866ZM-11.0444 60.3946C-11.0444 56.917 -14.1494 54.3866 -17.6018 54.3866V57.5211C-15.5494 57.5211 -14.1919 58.9672 -14.1919 60.3946H-11.0444ZM-14.3979 65.6388C-12.4607 64.6446 -11.0444 62.7136 -11.0444 60.3946H-14.1919C-14.1919 61.3689 -14.7878 62.3127 -15.8394 62.852L-14.3979 65.6388ZM-6.71647 65.0725C-9.4985 65.0725 -12.0905 64.2823 -14.2842 62.9165L-15.953 65.5743C-13.2735 67.2427 -10.1057 68.207 -6.71647 68.207V65.0725ZM7.57878 50.8366C7.57878 58.6987 1.17836 65.0725 -6.71647 65.0725V68.207C2.91665 68.207 10.7263 60.4298 10.7263 50.8366H7.57878ZM7.42455 48.7359C7.5258 49.4206 7.57878 50.122 7.57878 50.8366H10.7263C10.7263 49.9681 10.6621 49.1136 10.5379 48.2778L7.42455 48.7359Z" fill="white"/>
</g>
</svg>
