<svg width="249" height="102" viewBox="0 0 249 102" fill="none" xmlns="http://www.w3.org/2000/svg">
<path d="M39.2112 31.875H32.6424C32.2897 31.875 32.0039 32.1604 32.0039 32.5125V44.8717L39.2112 31.875Z" fill="white"/>
<path d="M32.0039 48.847C32.0247 48.8479 32.0456 48.8484 32.0667 48.8484H42.0815C42.8654 48.8484 43.4813 49.517 43.4145 50.2956L42.5479 60.387C42.4247 61.821 44.3532 62.4054 45.0518 61.1458L55.4581 42.3802C55.9509 41.4914 55.306 40.4016 54.2872 40.4016H44.2725C43.4886 40.4016 42.8726 39.733 42.9395 38.9545L43.5474 31.875H53.6536C62.9663 31.875 67.141 43.5709 59.9384 49.4835L54.3079 54.1056C53.9391 54.4084 53.8666 54.945 54.1415 55.3352L63.8574 69.1203C64.1556 69.543 63.8529 70.125 63.3355 70.125H32.6424C32.2897 70.125 32.0039 69.8394 32.0039 69.4875V48.847Z" fill="white"/>
<path d="M141.409 52.5811V62.2463H146.755V51.3948C146.755 50.1155 146.476 48.9989 145.917 48.0451C145.381 47.068 144.612 46.312 143.611 45.7772C142.608 45.2187 141.444 44.9395 140.116 44.9395C138.811 44.9395 137.658 45.2187 136.656 45.7772C136.39 45.9191 136.14 46.0779 135.905 46.2528C135.778 46.3471 135.656 46.4464 135.538 46.5504V37.6123H130.191V62.2463H135.538V52.5811C135.538 51.9997 135.666 51.4879 135.923 51.0459C136.179 50.5805 136.528 50.2316 136.971 49.9991C137.414 49.7432 137.926 49.6152 138.508 49.6152C139.347 49.6152 140.035 49.8944 140.57 50.4526C141.13 50.9877 141.409 51.6971 141.409 52.5811Z" fill="white"/>
<path fill-rule="evenodd" clip-rule="evenodd" d="M82.0052 52.0927V62.2463H76.5195V37.6123H86.583C88.2142 37.6123 89.6469 37.9264 90.8817 38.5542C92.1159 39.1591 93.0831 40.0082 93.7823 41.1014C94.4807 42.1947 94.83 43.451 94.83 44.8698C94.83 46.3119 94.4807 47.5798 93.7823 48.673C93.0831 49.7432 92.105 50.5805 90.8466 51.1853C90.1449 51.5227 89.3743 51.7661 88.5347 51.9153L96.4383 62.2463H89.9381L82.5798 52.0927H82.0052ZM82.0052 48.0451H85.9196C87.0146 48.0451 87.8535 47.7659 88.4358 47.2075C89.041 46.6494 89.3443 45.8932 89.3443 44.9395C89.3443 44.0558 89.0532 43.323 88.4703 42.7416C87.888 42.1598 87.0497 41.869 85.9547 41.869H82.0052V48.0451Z" fill="white"/>
<path fill-rule="evenodd" clip-rule="evenodd" d="M99.9645 61.5142C101.409 62.2585 103.051 62.6308 104.891 62.6308C106.313 62.6308 107.618 62.3864 108.806 61.898C109.993 61.4093 111.007 60.6765 111.846 59.6997L108.911 56.7687C108.398 57.3502 107.804 57.7922 107.128 58.0948C106.453 58.3737 105.696 58.5135 104.856 58.5135C103.948 58.5135 103.156 58.3273 102.481 57.955C101.828 57.5597 101.316 57.0131 100.943 56.3152C100.826 56.073 100.729 55.8153 100.651 55.5416L112.824 55.5127C112.918 55.0707 112.976 54.6869 112.999 54.3613C113.015 54.2396 113.028 54.121 113.039 54.0049C113.045 53.9473 113.048 53.8906 113.052 53.8346C113.058 53.7503 113.063 53.6675 113.065 53.5862L113.068 53.4965L113.069 53.3842C113.069 51.7325 112.697 50.267 111.951 48.9877C111.229 47.7083 110.227 46.7082 108.946 45.9869C107.664 45.266 106.184 44.9053 104.508 44.9053C102.783 44.9053 101.234 45.289 99.8598 46.0567C98.4852 46.8243 97.3902 47.883 96.5749 49.232C95.7826 50.5578 95.3867 52.0699 95.3867 53.768C95.3867 55.466 95.7947 56.9897 96.6094 58.3388C97.4253 59.6879 98.5439 60.7466 99.9645 61.5142ZM100.652 51.877C100.678 51.7861 100.706 51.6971 100.736 51.6099C100.787 51.463 100.844 51.3213 100.908 51.1859C101.258 50.4881 101.736 49.9529 102.341 49.581C102.97 49.1853 103.704 48.9877 104.542 48.9877C105.334 48.9877 105.998 49.1623 106.534 49.5113L106.606 49.5542L106.678 49.5999C106.739 49.6401 106.797 49.6824 106.853 49.7267C106.909 49.7699 106.963 49.8154 107.016 49.8627C107.341 50.1566 107.599 50.5279 107.792 50.9768C107.909 51.2395 108.004 51.5324 108.076 51.8558L100.652 51.877Z" fill="white"/>
<path d="M122.464 62.6308C120.716 62.6308 119.132 62.2469 117.711 61.4793C116.29 60.7117 115.172 59.6531 114.356 58.3039C113.541 56.9548 113.133 55.4427 113.133 53.768C113.133 52.0699 113.541 50.5578 114.356 49.232C115.195 47.883 116.324 46.8243 117.746 46.0567C119.167 45.289 120.762 44.9053 122.534 44.9053C123.861 44.9053 125.072 45.1381 126.168 45.6031C126.726 45.8238 127.252 46.1024 127.747 46.4389C128.242 46.7767 128.706 47.1726 129.138 47.6271L125.713 51.0465C125.317 50.6045 124.851 50.2789 124.315 50.0694C124.073 49.9707 123.814 49.8954 123.536 49.8431C123.409 49.8191 123.279 49.8001 123.145 49.7861C123.006 49.7715 122.864 49.7621 122.717 49.7581C122.656 49.7562 122.595 49.7553 122.534 49.7553C122.345 49.7553 122.161 49.7659 121.982 49.7867L121.885 49.7992L121.825 49.8079C121.764 49.8175 121.702 49.8287 121.64 49.8409C121.221 49.9249 120.832 50.0709 120.471 50.2789C119.889 50.6045 119.424 51.0695 119.074 51.6743C118.747 52.2561 118.584 52.9422 118.584 53.7331C118.584 54.5241 118.747 55.222 119.074 55.8265C119.424 56.4313 119.901 56.9082 120.506 57.2572C121.112 57.6061 121.788 57.7807 122.534 57.7807C123.233 57.7807 123.849 57.6643 124.385 57.4318C124.944 57.1759 125.422 56.8269 125.818 56.3849L129.208 59.8043C128.322 60.7347 127.321 61.4441 126.203 61.9328C125.084 62.3979 123.838 62.6308 122.464 62.6308Z" fill="white"/>
<path fill-rule="evenodd" clip-rule="evenodd" d="M155.884 62.5952C154.324 62.5952 152.926 62.2114 151.692 61.4434C150.48 60.6758 149.513 59.6293 148.791 58.3032C148.092 56.9776 147.742 55.4653 147.742 53.7673C147.742 52.0693 148.092 50.5571 148.791 49.2314C149.513 47.9053 150.48 46.8588 151.692 46.0908C152.926 45.3232 154.324 44.9395 155.884 44.9395C157.026 44.9395 158.051 45.1604 158.96 45.6025C159.571 45.8923 160.107 46.257 160.567 46.6966V45.2884H165.809V62.2462H160.567V60.8722C160.252 61.1695 159.899 61.4329 159.506 61.6623C159.435 61.7043 159.362 61.7454 159.287 61.7853C159.192 61.8359 159.094 61.8848 158.994 61.9321C158.063 62.3742 157.026 62.5952 155.884 62.5952ZM156.969 57.78C158.11 57.78 159.03 57.4077 159.729 56.6635C160.428 55.8958 160.777 54.9302 160.777 53.7673C160.777 53.3717 160.736 52.9994 160.654 52.6505C160.573 52.3015 160.451 51.9759 160.288 51.6736C159.985 51.0688 159.542 50.6038 158.96 50.2782C158.645 50.0818 158.301 49.9408 157.928 49.8548C157.637 49.7879 157.329 49.7546 157.003 49.7546C156.631 49.7546 156.278 49.7982 155.947 49.8854C155.745 49.9385 155.549 50.008 155.362 50.0936C155.242 50.1484 155.125 50.21 155.011 50.2782C154.452 50.6038 153.998 51.0688 153.648 51.6736C153.322 52.2785 153.16 52.9764 153.16 53.7673C153.16 54.5349 153.322 55.2213 153.648 55.8258C153.974 56.4306 154.429 56.9075 155.011 57.2565C155.593 57.6054 156.246 57.78 156.969 57.78Z" fill="white"/>
<path d="M173.522 45.2884H168.176V62.2462H173.522V52.9299C173.522 51.8364 173.779 51.0224 174.291 50.4874C174.827 49.9292 175.538 49.65 176.423 49.65C176.866 49.65 177.262 49.7198 177.612 49.8595C177.96 49.999 178.252 50.1966 178.485 50.4525L181.665 46.4398C181.199 45.928 180.651 45.556 180.022 45.3232C179.417 45.0673 178.706 44.9395 177.891 44.9395C176.027 44.9395 174.571 45.4864 173.522 46.5795V45.2884Z" fill="white"/>
<path fill-rule="evenodd" clip-rule="evenodd" d="M188.411 69.8525C186.547 69.8525 184.905 69.5267 183.484 68.8759C182.086 68.2479 180.979 67.3522 180.164 66.1888L183.448 62.909C184.054 63.6302 184.73 64.1768 185.475 64.5491C186.244 64.9208 187.164 65.107 188.236 65.107C189.564 65.107 190.6 64.7818 191.346 64.1303C192.115 63.4789 192.5 62.56 192.5 61.3737V60.3026C192.136 60.5933 191.728 60.8455 191.276 61.0597C190.344 61.5016 189.308 61.7227 188.166 61.7227C186.605 61.7227 185.219 61.3507 184.008 60.6061C182.796 59.8619 181.841 58.8499 181.142 57.5705C180.443 56.2912 180.094 54.8723 180.094 53.3138C180.094 51.7318 180.443 50.3131 181.142 49.0567C181.841 47.7774 182.796 46.7772 184.008 46.056C185.219 45.3117 186.605 44.9395 188.166 44.9395C189.331 44.9395 190.368 45.1604 191.276 45.6025C191.36 45.6398 191.442 45.6787 191.522 45.7192C191.919 45.919 192.279 46.1553 192.604 46.428V45.2884H197.846V61.2343C197.846 62.979 197.438 64.4911 196.623 65.77C195.808 67.0494 194.69 68.0497 193.268 68.7707C191.847 69.4923 190.228 69.8525 188.411 69.8525ZM189.18 56.9776C189.925 56.9776 190.566 56.8144 191.101 56.4888C191.239 56.4088 191.368 56.3223 191.488 56.2295C191.858 55.9453 192.149 55.6014 192.359 55.1979C192.45 55.0317 192.527 54.8596 192.589 54.6812C192.671 54.4499 192.731 54.2081 192.768 53.9559C192.799 53.7489 192.814 53.5348 192.814 53.3138C192.814 52.6159 192.663 51.9877 192.359 51.4296C192.08 50.8711 191.66 50.4292 191.101 50.1035C190.566 49.778 189.925 49.6151 189.18 49.6151C188.959 49.6151 188.747 49.6304 188.543 49.6606L188.435 49.6781L188.341 49.6955C188.138 49.7363 187.942 49.7926 187.755 49.8645C187.651 49.9046 187.548 49.9498 187.449 49.9996C187.384 50.0322 187.321 50.0668 187.258 50.1035C186.699 50.4292 186.268 50.8711 185.965 51.4296C185.807 51.7204 185.69 52.03 185.615 52.3587C185.545 52.661 185.51 52.9795 185.51 53.3138C185.51 53.965 185.662 54.5813 185.965 55.1631C186.268 55.7212 186.686 56.1632 187.223 56.4888C187.523 56.6638 187.85 56.792 188.205 56.8729C188.51 56.9427 188.835 56.9776 189.18 56.9776Z" fill="white"/>
<path fill-rule="evenodd" clip-rule="evenodd" d="M203.684 61.5142C205.127 62.2585 206.77 62.6308 208.61 62.6308C210.031 62.6308 211.336 62.3864 212.524 61.898C213.713 61.4093 214.725 60.6765 215.564 59.6997L212.629 56.7687C212.117 57.3502 211.523 57.7922 210.847 58.0948C210.172 58.3737 209.414 58.5135 208.576 58.5135C207.667 58.5135 206.875 58.3273 206.199 57.955C205.733 57.673 205.339 57.3138 205.016 56.8774C204.965 56.808 204.915 56.7364 204.868 56.6629C204.795 56.5518 204.726 56.4357 204.662 56.3152C204.545 56.073 204.447 55.8153 204.369 55.5416L216.543 55.5127C216.589 55.2945 216.627 55.0903 216.656 54.9004C216.686 54.7056 216.706 54.526 216.718 54.3613C216.734 54.2383 216.747 54.1182 216.758 54.0011C216.777 53.7857 216.788 53.58 216.788 53.3842C216.788 51.7325 216.415 50.267 215.67 48.9877C214.947 47.7083 213.946 46.7082 212.664 45.9869C211.382 45.266 209.904 44.9053 208.227 44.9053C206.503 44.9053 204.953 45.289 203.578 46.0567C202.204 46.8243 201.109 47.883 200.294 49.232C199.502 50.5578 199.105 52.0699 199.105 53.768C199.105 55.466 199.513 56.9897 200.329 58.3388C201.144 59.6879 202.262 60.7466 203.684 61.5142ZM204.371 51.877C204.441 51.6323 204.526 51.4017 204.627 51.1859C204.827 50.7875 205.067 50.4423 205.35 50.1503C205.449 50.0479 205.554 49.952 205.664 49.8627C205.789 49.7603 205.92 49.6662 206.06 49.581C206.689 49.1853 207.423 48.9877 208.261 48.9877C209.053 48.9877 209.717 49.1623 210.253 49.5113C210.467 49.6358 210.66 49.7839 210.833 49.9561C211.112 50.2341 211.338 50.5742 211.511 50.9768C211.628 51.2395 211.722 51.5324 211.795 51.8558L204.371 51.877Z" fill="white"/>
</svg>
