<svg width="249" height="102" viewBox="0 0 249 102" fill="none" xmlns="http://www.w3.org/2000/svg">
<path d="M94.763 70.4301C90.368 70.4301 86.9405 69.2109 84.4795 66.773C82.048 64.3351 80.832 60.854 80.832 56.3302V39.0576H87.9513V56.0658C87.9513 61.5882 90.2367 64.3499 94.8068 64.3499C97.0336 64.3499 98.7328 63.6887 99.9045 62.3668C101.076 61.0153 101.662 58.9152 101.662 56.0658V39.0576H108.693V56.3302C108.693 60.854 107.463 64.3351 105.002 66.773C102.571 69.2109 99.1575 70.4301 94.763 70.4301Z" fill="white"/>
<path d="M112.168 54.7441H124.605V60.2517H112.168V54.7441Z" fill="white"/>
<path d="M133.071 44.8739H123.227V39.0576H150.034V44.8739H140.19V69.9018H133.071V44.8739Z" fill="white"/>
<path d="M174.485 46.1963V69.9023H167.982V67.0819C167.073 68.1102 165.989 68.903 164.729 69.4617C163.47 69.99 162.107 70.2545 160.642 70.2545C157.537 70.2545 155.076 69.3585 153.26 67.5669C151.444 65.7748 150.535 63.1163 150.535 59.5914V46.1963H157.391V58.5779C157.391 62.3964 158.988 64.3059 162.181 64.3059C163.821 64.3059 165.14 63.7775 166.136 62.7196C167.132 61.6332 167.63 60.032 167.63 57.917V46.1963H174.485Z" fill="white"/>
<path d="M185.189 49.3247C186.009 48.1791 187.107 47.3125 188.484 46.725C189.891 46.1375 191.502 45.8438 193.318 45.8438V52.1887C192.557 52.13 192.044 52.1006 191.78 52.1006C189.817 52.1006 188.279 52.6588 187.166 53.775C186.053 54.8619 185.496 56.5069 185.496 58.71V69.9022H178.641V46.1962H185.189V49.3247Z" fill="white"/>
<path d="M209.57 45.8438C212.5 45.8438 214.858 46.725 216.645 48.4875C218.462 50.25 219.369 52.8644 219.369 56.3307V69.9022H212.514V57.3881C212.514 55.5081 212.104 54.1128 211.284 53.2022C210.463 52.2622 209.277 51.7922 207.724 51.7922C205.996 51.7922 204.619 52.3356 203.593 53.4225C202.567 54.48 202.055 56.0663 202.055 58.1813V69.9022H195.199V46.1962H201.747V48.9722C202.656 47.9734 203.784 47.2097 205.131 46.6809C206.479 46.1228 207.959 45.8438 209.57 45.8438Z" fill="white"/>
<path fill-rule="evenodd" clip-rule="evenodd" d="M50.205 31.0413C51.3741 29.8691 53.2696 29.8691 54.4387 31.0413L65.3866 42.0185L54.3889 52.5444C53.1929 53.6891 51.298 53.6449 50.1564 52.4457C49.0147 51.2466 49.0588 49.3466 50.2548 48.202L53.6314 44.9702H46.3345C40.4926 44.9702 35.7568 49.7186 35.7568 55.576C35.7568 61.4332 40.4926 66.1816 46.3345 66.1816H61.1033C62.7564 66.1816 64.0972 67.526 64.0972 69.1835C64.0972 70.841 62.7564 72.1854 61.1033 72.1854H46.3345C37.1859 72.1854 29.7695 64.7488 29.7695 55.576C29.7695 46.4031 37.1859 38.9669 46.3345 38.9669H53.8759L50.205 35.2863C49.0359 34.114 49.0359 32.2135 50.205 31.0413Z" fill="white"/>
</svg>
