<svg width="190" height="106" viewBox="0 0 190 106" fill="none" xmlns="http://www.w3.org/2000/svg">
<path d="M130.159 52.2024C129.024 53.2156 128.456 54.6919 128.456 56.6314V68.7458H120.891V44.9512H126.896V52.8034C127.183 50.5621 127.909 48.7551 129.071 47.3828C130.647 45.5591 132.917 44.6472 135.88 44.6472H136.873V50.6393H134.982C132.902 50.6393 131.293 51.1604 130.159 52.2024Z" fill="white"/>
<path fill-rule="evenodd" clip-rule="evenodd" d="M153.092 65.8365C153.417 65.3306 153.684 64.7728 153.896 64.1621V68.746H159.901V54.1566C159.901 51.9566 159.428 50.1618 158.483 48.7724C157.537 47.354 156.15 46.2973 154.321 45.6026C152.525 44.9079 150.302 44.5605 147.654 44.5605C146.739 44.5605 145.762 44.575 144.722 44.6039C143.681 44.6329 142.673 44.6763 141.696 44.7342C140.718 44.7921 139.867 44.85 139.142 44.9079V50.7697C140.119 50.7118 141.207 50.6539 142.405 50.596C143.603 50.5381 144.769 50.4947 145.904 50.4658C147.039 50.4368 147.953 50.4223 148.647 50.4223C150.034 50.4223 151.043 50.7263 151.673 51.3342C152.304 51.9421 152.619 52.8539 152.619 54.0697V54.1566H147.937C145.636 54.1566 143.603 54.4316 141.837 54.9815C140.072 55.5026 138.701 56.3276 137.724 57.4566C136.746 58.5566 136.258 59.9749 136.258 61.7118C136.258 63.3036 136.652 64.6792 137.44 65.8365C138.228 66.9656 139.316 67.8339 140.702 68.4422C142.121 69.0498 143.761 69.3536 145.62 69.3536C147.417 69.3536 148.931 69.0498 150.16 68.4422C151.421 67.8339 152.399 66.9656 153.092 65.8365ZM151.862 62.7108C152.304 62.0446 152.556 61.1184 152.619 59.9315V58.021H147.89C146.566 58.021 145.541 58.325 144.816 58.9329C144.123 59.5118 143.776 60.3078 143.776 61.321C143.776 62.2763 144.123 63.0577 144.816 63.666C145.541 64.2447 146.566 64.5343 147.89 64.5343C148.741 64.5343 149.498 64.4037 150.16 64.1436C150.854 63.854 151.421 63.3763 151.862 62.7108Z" fill="white"/>
<path d="M175.588 69.5708C173.35 69.5708 171.396 69.2374 169.724 68.5719C168.085 67.8773 166.714 66.951 165.61 65.7931C164.507 64.6351 163.687 63.3323 163.152 61.8852C162.615 60.4088 162.348 58.8891 162.348 57.3259V56.5009C162.348 54.8799 162.632 53.3312 163.199 51.8549C163.766 50.3497 164.601 49.0181 165.705 47.8602C166.808 46.7023 168.18 45.7904 169.819 45.1247C171.49 44.4589 173.397 44.126 175.541 44.126C177.874 44.126 179.939 44.5457 181.735 45.3852C183.532 46.1957 184.967 47.3391 186.039 48.8154C187.111 50.2917 187.709 51.9851 187.836 53.8957H180.411C180.285 52.8246 179.813 51.9273 178.993 51.2036C178.204 50.451 177.054 50.0747 175.541 50.0747C174.28 50.0747 173.224 50.3641 172.373 50.9431C171.553 51.522 170.938 52.3181 170.528 53.3312C170.118 54.3444 169.914 55.5457 169.914 56.9352C169.914 58.2088 170.103 59.3667 170.481 60.4088C170.859 61.422 171.459 62.218 172.278 62.7967C173.129 63.347 174.233 63.6219 175.588 63.6219C176.597 63.6219 177.448 63.4629 178.141 63.1443C178.867 62.7967 179.434 62.3339 179.844 61.7546C180.285 61.147 180.554 60.4523 180.648 59.6706H188.025C187.93 61.6393 187.331 63.376 186.227 64.881C185.124 66.3576 183.658 67.5156 181.83 68.3549C180.002 69.1653 177.921 69.5708 175.588 69.5708Z" fill="white"/>
<path fill-rule="evenodd" clip-rule="evenodd" d="M196.508 68.5287C198.21 69.2233 200.165 69.5708 202.371 69.5708C204.547 69.5708 206.469 69.2233 208.141 68.5287C209.811 67.8336 211.198 66.8641 212.302 65.6193C213.405 64.3744 214.146 62.9563 214.525 61.3641H207.573C207.258 62.088 206.659 62.6956 205.776 63.188C204.894 63.6798 203.759 63.9257 202.371 63.9257C200.859 63.9257 199.629 63.6367 198.683 63.0574C197.737 62.4787 197.044 61.6683 196.603 60.6259C196.356 60.0286 196.179 59.3773 196.07 58.672H214.997V56.3273C214.997 54.1562 214.493 52.1589 213.484 50.3352C212.475 48.4825 211.009 46.9917 209.086 45.8628C207.195 44.7049 204.862 44.126 202.088 44.126C199.975 44.126 198.084 44.4734 196.414 45.1681C194.774 45.8339 193.403 46.7457 192.299 47.9036C191.196 49.0615 190.345 50.3786 189.746 51.8549C189.178 53.3023 188.895 54.822 188.895 56.4141V57.2825C188.895 58.8167 189.178 60.322 189.746 61.7983C190.345 63.2454 191.196 64.563 192.299 65.7493C193.434 66.9073 194.837 67.8336 196.508 68.5287ZM196.128 54.7207C196.246 54.0981 196.42 53.5337 196.65 53.0273C197.123 51.9562 197.816 51.1457 198.73 50.5957C199.644 50.0457 200.764 49.7707 202.088 49.7707C203.38 49.7707 204.452 50.0457 205.304 50.5957C206.186 51.1167 206.848 51.8838 207.29 52.897C207.529 53.4455 207.702 54.0534 207.812 54.7207H196.128Z" fill="white"/>
<path d="M102.878 68.7461V43.258H93.1836V37.0488H120.374V43.258H110.632V68.7461H102.878Z" fill="white"/>
<path fill-rule="evenodd" clip-rule="evenodd" d="M57.8496 34.8701C47.0657 34.8701 38.3235 42.8974 38.3235 52.7996C38.3235 62.702 47.0657 70.729 57.8496 70.729C68.6338 70.729 77.3756 62.702 77.3756 52.7996C77.3756 42.8974 68.6338 34.8701 57.8496 34.8701ZM33.9844 52.7996C33.9844 40.6969 44.6692 30.8857 57.8496 30.8857C71.0298 30.8857 81.7147 40.6969 81.7147 52.7996C81.7147 64.9021 71.0298 74.7132 57.8496 74.7132C44.6692 74.7132 33.9844 64.9021 33.9844 52.7996Z" fill="white"/>
<path fill-rule="evenodd" clip-rule="evenodd" d="M69.7535 45.3707C70.3898 43.5311 68.4897 41.8033 66.4925 42.4051L52.8883 46.5039C52.1009 46.7412 51.4856 47.3116 51.2348 48.037L47.0195 60.2296C46.3835 62.069 48.2834 63.797 50.2806 63.1955L63.8848 59.0964C64.6722 58.8592 65.2875 58.2887 65.5383 57.5634L69.7535 45.3707ZM58.3841 55.646C60.0958 55.646 61.4834 54.3718 61.4834 52.8001C61.4834 51.2283 60.0958 49.9542 58.3841 49.9542C56.6723 49.9542 55.2847 51.2283 55.2847 52.8001C55.2847 54.3718 56.6723 55.646 58.3841 55.646Z" fill="white"/>
</svg>
