<svg width="48" height="48" viewBox="0 0 48 48" fill="none" xmlns="http://www.w3.org/2000/svg">
<circle cx="24" cy="24" r="24" fill="#FED30D"/>
<path d="M19.1002 12.3335H28.9002C32.6335 12.3335 35.6668 15.3668 35.6668 19.1002V28.9002C35.6668 30.6948 34.9539 32.4159 33.6849 33.6849C32.4159 34.9539 30.6948 35.6668 28.9002 35.6668H19.1002C15.3668 35.6668 12.3335 32.6335 12.3335 28.9002V19.1002C12.3335 17.3055 13.0464 15.5844 14.3154 14.3154C15.5844 13.0464 17.3055 12.3335 19.1002 12.3335ZM18.8668 14.6668C17.7529 14.6668 16.6846 15.1093 15.897 15.897C15.1093 16.6846 14.6668 17.7529 14.6668 18.8668V29.1335C14.6668 31.4552 16.5452 33.3335 18.8668 33.3335H29.1335C30.2474 33.3335 31.3157 32.891 32.1033 32.1033C32.891 31.3157 33.3335 30.2474 33.3335 29.1335V18.8668C33.3335 16.5452 31.4552 14.6668 29.1335 14.6668H18.8668ZM30.1252 16.4168C30.5119 16.4168 30.8829 16.5705 31.1564 16.844C31.4299 17.1175 31.5835 17.4884 31.5835 17.8752C31.5835 18.2619 31.4299 18.6329 31.1564 18.9064C30.8829 19.1799 30.5119 19.3335 30.1252 19.3335C29.7384 19.3335 29.3675 19.1799 29.094 18.9064C28.8205 18.6329 28.6668 18.2619 28.6668 17.8752C28.6668 17.4884 28.8205 17.1175 29.094 16.844C29.3675 16.5705 29.7384 16.4168 30.1252 16.4168ZM24.0002 18.1668C25.5473 18.1668 27.031 18.7814 28.125 19.8754C29.2189 20.9693 29.8335 22.4531 29.8335 24.0002C29.8335 25.5473 29.2189 27.031 28.125 28.125C27.031 29.2189 25.5473 29.8335 24.0002 29.8335C22.4531 29.8335 20.9693 29.2189 19.8754 28.125C18.7814 27.031 18.1668 25.5473 18.1668 24.0002C18.1668 22.4531 18.7814 20.9693 19.8754 19.8754C20.9693 18.7814 22.4531 18.1668 24.0002 18.1668ZM24.0002 20.5002C23.0719 20.5002 22.1817 20.8689 21.5253 21.5253C20.8689 22.1817 20.5002 23.0719 20.5002 24.0002C20.5002 24.9284 20.8689 25.8187 21.5253 26.475C22.1817 27.1314 23.0719 27.5002 24.0002 27.5002C24.9284 27.5002 25.8187 27.1314 26.475 26.475C27.1314 25.8187 27.5002 24.9284 27.5002 24.0002C27.5002 23.0719 27.1314 22.1817 26.475 21.5253C25.8187 20.8689 24.9284 20.5002 24.0002 20.5002Z" fill="#060405"/>
</svg>
