<svg width="63" height="57" viewBox="0 0 63 57" fill="none" xmlns="http://www.w3.org/2000/svg">
<rect width="63" height="57" rx="8" fill="#FED30D"/>
<path d="M44 22H42V21C42 20.2044 41.6839 19.4413 41.1213 18.8787C40.5587 18.3161 39.7956 18 39 18H21C20.2044 18 19.4413 18.3161 18.8787 18.8787C18.3161 19.4413 18 20.2044 18 21V33C18 33.7956 18.3161 34.5587 18.8787 35.1213C19.4413 35.6839 20.2044 36 21 36H35V37C35 37.7956 35.3161 38.5587 35.8787 39.1213C36.4413 39.6839 37.2044 40 38 40H44C44.7956 40 45.5587 39.6839 46.1213 39.1213C46.6839 38.5587 47 37.7956 47 37V25C47 24.2044 46.6839 23.4413 46.1213 22.8787C45.5587 22.3161 44.7956 22 44 22ZM21 34C20.7348 34 20.4804 33.8946 20.2929 33.7071C20.1054 33.5196 20 33.2652 20 33V21C20 20.7348 20.1054 20.4804 20.2929 20.2929C20.4804 20.1054 20.7348 20 21 20H39C39.2652 20 39.5196 20.1054 39.7071 20.2929C39.8946 20.4804 40 20.7348 40 21V22H38C37.2044 22 36.4413 22.3161 35.8787 22.8787C35.3161 23.4413 35 24.2044 35 25V34H21ZM45 37C45 37.2652 44.8946 37.5196 44.7071 37.7071C44.5196 37.8946 44.2652 38 44 38H38C37.7348 38 37.4804 37.8946 37.2929 37.7071C37.1054 37.5196 37 37.2652 37 37V25C37 24.7348 37.1054 24.4804 37.2929 24.2929C37.4804 24.1054 37.7348 24 38 24H44C44.2652 24 44.5196 24.1054 44.7071 24.2929C44.8946 24.4804 45 24.7348 45 25V37ZM33 39C33 39.2652 32.8946 39.5196 32.7071 39.7071C32.5196 39.8946 32.2652 40 32 40H27C26.7348 40 26.4804 39.8946 26.2929 39.7071C26.1054 39.5196 26 39.2652 26 39C26 38.7348 26.1054 38.4804 26.2929 38.2929C26.4804 38.1054 26.7348 38 27 38H32C32.2652 38 32.5196 38.1054 32.7071 38.2929C32.8946 38.4804 33 38.7348 33 39ZM43 27C43 27.2652 42.8946 27.5196 42.7071 27.7071C42.5196 27.8946 42.2652 28 42 28H40C39.7348 28 39.4804 27.8946 39.2929 27.7071C39.1054 27.5196 39 27.2652 39 27C39 26.7348 39.1054 26.4804 39.2929 26.2929C39.4804 26.1054 39.7348 26 40 26H42C42.2652 26 42.5196 26.1054 42.7071 26.2929C42.8946 26.4804 43 26.7348 43 27Z" fill="url(#paint0_linear_114_85)"/>
<defs>
<linearGradient id="paint0_linear_114_85" x1="32.5" y1="18" x2="32.5" y2="40" gradientUnits="userSpaceOnUse">
<stop stop-color="#1C1706"/>
<stop offset="1" stop-color="#564720"/>
</linearGradient>
</defs>
</svg>
