<svg width="48" height="48" viewBox="0 0 48 48" fill="none" xmlns="http://www.w3.org/2000/svg">
<circle cx="24" cy="24" r="24" fill="#FED30D"/>
<path d="M18.0968 15.8335C18.0965 16.4524 17.8504 17.0457 17.4126 17.4831C16.9748 17.9205 16.3812 18.166 15.7623 18.1657C15.1435 18.1654 14.5501 17.9193 14.1128 17.4814C13.6754 17.0436 13.4299 16.45 13.4302 15.8312C13.4305 15.2124 13.6766 14.619 14.1144 14.1816C14.5522 13.7442 15.1458 13.4987 15.7647 13.499C16.3835 13.4993 16.9769 13.7455 17.4143 14.1833C17.8516 14.6211 18.0972 15.2147 18.0968 15.8335ZM18.1668 19.8935H13.5002V34.5002H18.1668V19.8935ZM25.5402 19.8935H20.8968V34.5002H25.4935V26.8352C25.4935 22.5652 31.0585 22.1685 31.0585 26.8352V34.5002H35.6668V25.2485C35.6668 18.0502 27.4302 18.3185 25.4935 21.8535L25.5402 19.8935Z" fill="#060405"/>
</svg>
