<svg width="63" height="57" viewBox="0 0 63 57" fill="none" xmlns="http://www.w3.org/2000/svg">
<rect width="63" height="57" rx="8" fill="#FED30D"/>
<path d="M31.5 18C28.7152 18 26.0445 19.1062 24.0754 21.0754C22.1062 23.0445 21 25.7152 21 28.5C21 31.2848 22.1062 33.9555 24.0754 35.9246C26.0445 37.8938 28.7152 39 31.5 39C33.6717 39 35.9524 38.3458 37.6011 37.2503C37.6895 37.1916 37.7654 37.116 37.8246 37.028C37.8837 36.9399 37.925 36.841 37.9459 36.737C37.9669 36.633 37.9671 36.5258 37.9467 36.4217C37.9262 36.3176 37.8855 36.2185 37.8268 36.1302C37.768 36.0418 37.6925 35.9659 37.6044 35.9067C37.5163 35.8475 37.4174 35.8063 37.3134 35.7853C37.2094 35.7644 37.1023 35.7641 36.9981 35.7846C36.894 35.805 36.795 35.8458 36.7066 35.9045C35.3365 36.8172 33.3385 37.3846 31.5 37.3846C29.7428 37.3846 28.025 36.8635 26.564 35.8873C25.1029 34.911 23.9641 33.5234 23.2917 31.9C22.6192 30.2765 22.4433 28.4901 22.7861 26.7667C23.1289 25.0433 23.9751 23.4602 25.2176 22.2176C26.4602 20.9751 28.0433 20.1289 29.7667 19.7861C31.4901 19.4433 33.2765 19.6192 34.9 20.2917C36.5234 20.9641 37.911 22.1029 38.8873 23.564C39.8635 25.025 40.3846 26.7428 40.3846 28.5C40.3846 31.1704 39.2862 31.7308 38.3654 31.7308C37.4446 31.7308 36.3462 31.1704 36.3462 28.5V24.4615C36.3462 24.2473 36.2611 24.0419 36.1096 23.8904C35.9581 23.7389 35.7527 23.6538 35.5385 23.6538C35.3242 23.6538 35.1188 23.7389 34.9673 23.8904C34.8159 24.0419 34.7308 24.2473 34.7308 24.4615V24.8916C34.0059 24.2418 33.1022 23.8253 32.1373 23.6964C31.1724 23.5675 30.191 23.7322 29.321 24.1691C28.451 24.6059 27.7328 25.2946 27.2599 26.1455C26.7869 26.9964 26.5812 27.97 26.6695 28.9395C26.7578 29.909 27.1361 30.8294 27.755 31.5808C28.3739 32.3323 29.2047 32.8799 30.1393 33.1524C31.0739 33.4248 32.0689 33.4095 32.9946 33.1084C33.9204 32.8073 34.734 32.2344 35.3295 31.4642C35.9352 32.6758 36.9802 33.3462 38.3654 33.3462C40.6411 33.3462 42 31.5349 42 28.5C41.9971 25.7161 40.8899 23.0471 38.9214 21.0786C36.9529 19.1101 34.2839 18.0029 31.5 18ZM31.5 31.7308C30.861 31.7308 30.2364 31.5413 29.7051 31.1863C29.1738 30.8313 28.7597 30.3267 28.5152 29.7364C28.2706 29.146 28.2066 28.4964 28.3313 27.8697C28.456 27.243 28.7637 26.6673 29.2155 26.2155C29.6673 25.7637 30.243 25.456 30.8697 25.3313C31.4964 25.2066 32.146 25.2706 32.7364 25.5152C33.3267 25.7597 33.8313 26.1738 34.1863 26.7051C34.5413 27.2364 34.7308 27.861 34.7308 28.5C34.7308 29.3569 34.3904 30.1786 33.7845 30.7845C33.1786 31.3904 32.3569 31.7308 31.5 31.7308Z" fill="url(#paint0_linear_114_82)"/>
<defs>
<linearGradient id="paint0_linear_114_82" x1="31.5" y1="18" x2="31.5" y2="39" gradientUnits="userSpaceOnUse">
<stop stop-color="#1C1706"/>
<stop offset="1" stop-color="#564720"/>
</linearGradient>
</defs>
</svg>
