<svg width="63" height="57" viewBox="0 0 63 57" fill="none" xmlns="http://www.w3.org/2000/svg">
<rect width="63" height="57" rx="8" fill="#FED30D"/>
<path d="M45 28H43.9575C43.7175 25.1743 42.486 22.5245 40.4808 20.5192C38.4755 18.514 35.8257 17.2825 33 17.0425V16C33 15.7348 32.8946 15.4804 32.7071 15.2929C32.5196 15.1054 32.2652 15 32 15C31.7348 15 31.4804 15.1054 31.2929 15.2929C31.1054 15.4804 31 15.7348 31 16V17.0425C28.1743 17.2825 25.5245 18.514 23.5192 20.5192C21.514 22.5245 20.2825 25.1743 20.0425 28H19C18.7348 28 18.4804 28.1054 18.2929 28.2929C18.1054 28.4804 18 28.7348 18 29C18 29.2652 18.1054 29.5196 18.2929 29.7071C18.4804 29.8946 18.7348 30 19 30H20.0425C20.2825 32.8257 21.514 35.4755 23.5192 37.4808C25.5245 39.486 28.1743 40.7175 31 40.9575V42C31 42.2652 31.1054 42.5196 31.2929 42.7071C31.4804 42.8946 31.7348 43 32 43C32.2652 43 32.5196 42.8946 32.7071 42.7071C32.8946 42.5196 33 42.2652 33 42V40.9575C35.8257 40.7175 38.4755 39.486 40.4808 37.4808C42.486 35.4755 43.7175 32.8257 43.9575 30H45C45.2652 30 45.5196 29.8946 45.7071 29.7071C45.8946 29.5196 46 29.2652 46 29C46 28.7348 45.8946 28.4804 45.7071 28.2929C45.5196 28.1054 45.2652 28 45 28ZM33 38.95V38C33 37.7348 32.8946 37.4804 32.7071 37.2929C32.5196 37.1054 32.2652 37 32 37C31.7348 37 31.4804 37.1054 31.2929 37.2929C31.1054 37.4804 31 37.7348 31 38V38.95C28.7061 38.7159 26.5631 37.6978 24.9327 36.0673C23.3022 34.4369 22.2841 32.2939 22.05 30H23C23.2652 30 23.5196 29.8946 23.7071 29.7071C23.8946 29.5196 24 29.2652 24 29C24 28.7348 23.8946 28.4804 23.7071 28.2929C23.5196 28.1054 23.2652 28 23 28H22.05C22.2841 25.7061 23.3022 23.5631 24.9327 21.9327C26.5631 20.3022 28.7061 19.2841 31 19.05V20C31 20.2652 31.1054 20.5196 31.2929 20.7071C31.4804 20.8946 31.7348 21 32 21C32.2652 21 32.5196 20.8946 32.7071 20.7071C32.8946 20.5196 33 20.2652 33 20V19.05C35.2939 19.2841 37.4369 20.3022 39.0673 21.9327C40.6978 23.5631 41.7159 25.7061 41.95 28H41C40.7348 28 40.4804 28.1054 40.2929 28.2929C40.1054 28.4804 40 28.7348 40 29C40 29.2652 40.1054 29.5196 40.2929 29.7071C40.4804 29.8946 40.7348 30 41 30H41.95C41.7159 32.2939 40.6978 34.4369 39.0673 36.0673C37.4369 37.6978 35.2939 38.7159 33 38.95ZM32 24C31.0111 24 30.0444 24.2932 29.2221 24.8427C28.3999 25.3921 27.759 26.173 27.3806 27.0866C27.0022 28.0002 26.9031 29.0055 27.0961 29.9755C27.289 30.9454 27.7652 31.8363 28.4645 32.5355C29.1637 33.2348 30.0546 33.711 31.0245 33.9039C31.9945 34.0969 32.9998 33.9978 33.9134 33.6194C34.827 33.241 35.6079 32.6001 36.1573 31.7779C36.7068 30.9556 37 29.9889 37 29C37 27.6739 36.4732 26.4021 35.5355 25.4645C34.5979 24.5268 33.3261 24 32 24ZM32 32C31.4067 32 30.8266 31.8241 30.3333 31.4944C29.8399 31.1648 29.4554 30.6962 29.2284 30.1481C29.0013 29.5999 28.9419 28.9967 29.0576 28.4147C29.1734 27.8328 29.4591 27.2982 29.8787 26.8787C30.2982 26.4591 30.8328 26.1734 31.4147 26.0576C31.9967 25.9419 32.5999 26.0013 33.1481 26.2284C33.6962 26.4554 34.1648 26.8399 34.4944 27.3333C34.8241 27.8266 35 28.4067 35 29C35 29.7956 34.6839 30.5587 34.1213 31.1213C33.5587 31.6839 32.7956 32 32 32Z" fill="url(#paint0_linear_114_76)"/>
<defs>
<linearGradient id="paint0_linear_114_76" x1="32" y1="15" x2="32" y2="43" gradientUnits="userSpaceOnUse">
<stop stop-color="#1C1706"/>
<stop offset="1" stop-color="#564720"/>
</linearGradient>
</defs>
</svg>
