<svg width="63" height="57" viewBox="0 0 63 57" fill="none" xmlns="http://www.w3.org/2000/svg">
<rect width="63" height="57" rx="8" fill="#FED30D"/>
<path d="M42 18H22C21.2044 18 20.4413 18.3161 19.8787 18.8787C19.3161 19.4413 19 20.2044 19 21V35C19 35.7956 19.3161 36.5587 19.8787 37.1213C20.4413 37.6839 21.2044 38 22 38H31V40H28C27.7348 40 27.4804 40.1054 27.2929 40.2929C27.1054 40.4804 27 40.7348 27 41C27 41.2652 27.1054 41.5196 27.2929 41.7071C27.4804 41.8946 27.7348 42 28 42H36C36.2652 42 36.5196 41.8946 36.7071 41.7071C36.8946 41.5196 37 41.2652 37 41C37 40.7348 36.8946 40.4804 36.7071 40.2929C36.5196 40.1054 36.2652 40 36 40H33V38H42C42.7956 38 43.5587 37.6839 44.1213 37.1213C44.6839 36.5587 45 35.7956 45 35V21C45 20.2044 44.6839 19.4413 44.1213 18.8787C43.5587 18.3161 42.7956 18 42 18ZM22 20H42C42.2652 20 42.5196 20.1054 42.7071 20.2929C42.8946 20.4804 43 20.7348 43 21V31H21V21C21 20.7348 21.1054 20.4804 21.2929 20.2929C21.4804 20.1054 21.7348 20 22 20ZM42 36H22C21.7348 36 21.4804 35.8946 21.2929 35.7071C21.1054 35.5196 21 35.2652 21 35V33H43V35C43 35.2652 42.8946 35.5196 42.7071 35.7071C42.5196 35.8946 42.2652 36 42 36Z" fill="url(#paint0_linear_114_79)"/>
<path d="M23.8136 22.9025V28.5957C23.8136 29.381 24.3371 29.6035 24.5989 29.6166H30.2332C31.0185 29.6323 31.2148 28.9426 31.2148 28.5957V22.9025C31.1206 22.0387 30.3772 21.8358 30.0173 21.8423H25.0897C24.0531 21.7481 23.8071 22.5098 23.8136 22.9025Z" stroke="url(#paint1_linear_114_79)" stroke-width="0.8"/>
<path d="M28.9965 26.5203C28.9961 26.7956 28.8871 27.0596 28.6932 27.2542C28.4993 27.4489 28.2364 27.5584 27.9622 27.5587H27.7235V27.7984C27.7235 27.8619 27.6983 27.9229 27.6536 27.9678C27.6088 28.0128 27.5481 28.038 27.4848 28.038C27.4215 28.038 27.3608 28.0128 27.316 27.9678C27.2713 27.9229 27.2461 27.8619 27.2461 27.7984V27.5587H27.0074C26.7332 27.5584 26.4703 27.4489 26.2764 27.2542C26.0825 27.0596 25.9735 26.7956 25.9731 26.5203C25.9731 26.4567 25.9983 26.3958 26.0431 26.3508C26.0878 26.3059 26.1485 26.2806 26.2118 26.2806C26.2751 26.2806 26.3358 26.3059 26.3806 26.3508C26.4254 26.3958 26.4505 26.4567 26.4505 26.5203C26.4505 26.6686 26.5092 26.8108 26.6136 26.9157C26.7181 27.0205 26.8597 27.0795 27.0074 27.0795H27.9622C28.1099 27.0795 28.2515 27.0205 28.356 26.9157C28.4604 26.8108 28.5191 26.6686 28.5191 26.5203C28.5191 26.372 28.4604 26.2298 28.356 26.1249C28.2515 26.02 28.1099 25.9611 27.9622 25.9611H27.1666C26.8922 25.9611 26.6292 25.8517 26.4352 25.657C26.2412 25.4622 26.1323 25.1981 26.1323 24.9227C26.1323 24.6472 26.2412 24.3831 26.4352 24.1884C26.6292 23.9936 26.8922 23.8842 27.1666 23.8842H27.2461V23.6446C27.2461 23.581 27.2713 23.52 27.316 23.4751C27.3608 23.4302 27.4215 23.4049 27.4848 23.4049C27.5481 23.4049 27.6088 23.4302 27.6536 23.4751C27.6983 23.52 27.7235 23.581 27.7235 23.6446V23.8842H27.803C28.0773 23.8845 28.3402 23.994 28.534 24.1887C28.7279 24.3834 28.837 24.6473 28.8373 24.9227C28.8373 24.9862 28.8122 25.0472 28.7674 25.0921C28.7227 25.1371 28.662 25.1623 28.5987 25.1623C28.5354 25.1623 28.4746 25.1371 28.4299 25.0921C28.3851 25.0472 28.36 24.9862 28.36 24.9227C28.36 24.7744 28.3013 24.6321 28.1969 24.5273C28.0924 24.4224 27.9508 24.3635 27.803 24.3635H27.1666C27.0189 24.3635 26.8772 24.4224 26.7728 24.5273C26.6683 24.6321 26.6096 24.7744 26.6096 24.9227C26.6096 25.071 26.6683 25.2132 26.7728 25.318C26.8772 25.4229 27.0189 25.4818 27.1666 25.4818H27.9622C28.2364 25.4821 28.4993 25.5917 28.6932 25.7863C28.8871 25.981 28.9961 26.245 28.9965 26.5203Z" fill="url(#paint2_linear_114_79)"/>
<path d="M37.3203 26.5656L37.9289 28.9607L39.6172 27.1939L37.3203 26.5656Z" stroke="url(#paint3_linear_114_79)" stroke-width="0.8" stroke-linejoin="round"/>
<path d="M39.8577 29.6686C40.0101 29.8285 40.2633 29.8346 40.4232 29.6822C40.5831 29.5298 40.5892 29.2766 40.4368 29.1167L39.8577 29.6686ZM38.6602 28.4122L39.8577 29.6686L40.4368 29.1167L39.2393 27.8602L38.6602 28.4122Z" fill="url(#paint4_linear_114_79)"/>
<path d="M36.2797 27.7828H34.7876C34.4801 27.7566 33.8571 27.5433 33.8257 26.8994V25.6429C33.8388 25.4335 34.0927 25.0304 35.0036 25.0932H39.1263C39.375 25.0736 39.9234 25.1796 40.1275 25.7607V26.3889" stroke="url(#paint5_linear_114_79)" stroke-width="0.8" stroke-linecap="round" stroke-linejoin="round"/>
<path d="M34.1201 23.4049H40.049" stroke="url(#paint6_linear_114_79)" stroke-width="0.8" stroke-linecap="round" stroke-linejoin="round"/>
<defs>
<linearGradient id="paint0_linear_114_79" x1="32" y1="18" x2="32" y2="42" gradientUnits="userSpaceOnUse">
<stop stop-color="#1C1706"/>
<stop offset="1" stop-color="#564720"/>
</linearGradient>
<linearGradient id="paint1_linear_114_79" x1="27.5141" y1="21.8344" x2="27.5141" y2="29.6168" gradientUnits="userSpaceOnUse">
<stop stop-color="#1C1706"/>
<stop offset="1" stop-color="#564720"/>
</linearGradient>
<linearGradient id="paint2_linear_114_79" x1="27.4848" y1="23.4049" x2="27.4848" y2="28.038" gradientUnits="userSpaceOnUse">
<stop stop-color="#1C1706"/>
<stop offset="1" stop-color="#564720"/>
</linearGradient>
<linearGradient id="paint3_linear_114_79" x1="38.4688" y1="26.5656" x2="38.4688" y2="28.9607" gradientUnits="userSpaceOnUse">
<stop stop-color="#1C1706"/>
<stop offset="1" stop-color="#564720"/>
</linearGradient>
<linearGradient id="paint4_linear_114_79" x1="39.5485" y1="28.1362" x2="39.5485" y2="29.3926" gradientUnits="userSpaceOnUse">
<stop stop-color="#1C1706"/>
<stop offset="1" stop-color="#564720"/>
</linearGradient>
<linearGradient id="paint5_linear_114_79" x1="36.9766" y1="25.0867" x2="36.9766" y2="27.7828" gradientUnits="userSpaceOnUse">
<stop stop-color="#1C1706"/>
<stop offset="1" stop-color="#564720"/>
</linearGradient>
<linearGradient id="paint6_linear_114_79" x1="37.0845" y1="23.4049" x2="37.0845" y2="24.4049" gradientUnits="userSpaceOnUse">
<stop stop-color="#1C1706"/>
<stop offset="1" stop-color="#564720"/>
</linearGradient>
</defs>
</svg>
