<svg width="48" height="48" viewBox="0 0 48 48" fill="none" xmlns="http://www.w3.org/2000/svg">
<circle cx="24" cy="24" r="24" fill="#FED30D"/>
<path d="M32.2249 15.7286C31.1553 14.6481 29.8813 13.7915 28.4772 13.2086C27.073 12.6257 25.5669 12.3283 24.0466 12.3336C17.6766 12.3336 12.4849 17.5252 12.4849 23.8952C12.4849 25.9369 13.0216 27.9202 14.0249 29.6702L12.3916 35.6669L18.5166 34.0569C20.2083 34.9786 22.1099 35.4686 24.0466 35.4686C30.4166 35.4686 35.6083 30.2769 35.6083 23.9069C35.6083 20.8152 34.4066 17.9102 32.2249 15.7286ZM24.0466 33.5086C22.3199 33.5086 20.6283 33.0419 19.1466 32.1669L18.7966 31.9569L15.1566 32.9136L16.1249 29.3669L15.8916 29.0052C14.9323 27.4734 14.4229 25.7027 14.4216 23.8952C14.4216 18.5986 18.7383 14.2819 24.0349 14.2819C26.6016 14.2819 29.0166 15.2852 30.8249 17.1052C31.7203 17.9965 32.4299 19.0567 32.9126 20.2242C33.3952 21.3918 33.6413 22.6435 33.6366 23.9069C33.6599 29.2036 29.3433 33.5086 24.0466 33.5086ZM29.3199 26.3219C29.0283 26.1819 27.6049 25.4819 27.3483 25.3769C27.0799 25.2836 26.8933 25.2369 26.6949 25.5169C26.4966 25.8086 25.9483 26.4619 25.7849 26.6486C25.6216 26.8469 25.4466 26.8702 25.1549 26.7186C24.8633 26.5786 23.9299 26.2636 22.8333 25.2836C21.9699 24.5136 21.3983 23.5686 21.2233 23.2769C21.0599 22.9852 21.1999 22.8336 21.3516 22.6819C21.4799 22.5536 21.6433 22.3436 21.7833 22.1802C21.9233 22.0169 21.9816 21.8886 22.0749 21.7019C22.1683 21.5036 22.1216 21.3402 22.0516 21.2002C21.9816 21.0602 21.3983 19.6369 21.1649 19.0536C20.9316 18.4936 20.6866 18.5636 20.5116 18.5519H19.9516C19.7533 18.5519 19.4499 18.6219 19.1816 18.9136C18.9249 19.2052 18.1783 19.9052 18.1783 21.3286C18.1783 22.7519 19.2166 24.1286 19.3566 24.3152C19.4966 24.5136 21.3983 27.4302 24.2916 28.6786C24.9799 28.9819 25.5166 29.1569 25.9366 29.2852C26.6249 29.5069 27.2549 29.4719 27.7566 29.4019C28.3166 29.3202 29.4716 28.7019 29.7049 28.0252C29.9499 27.3486 29.9499 26.7769 29.8683 26.6486C29.7866 26.5202 29.6116 26.4619 29.3199 26.3219Z" fill="#060405"/>
</svg>
